<svg width="40" height="40" viewBox="0 0 40 40" fill="none" xmlns="http://www.w3.org/2000/svg">
<path d="M33.0772 9.32463C33.0772 7.99524 31.9998 6.92183 30.6753 6.92183C29.3508 6.92183 28.2725 7.99524 28.2725 9.32463C28.2725 10.6491 29.3508 11.7225 30.6753 11.7225C31.9998 11.7225 33.0772 10.6491 33.0772 9.32463Z" fill="url(#paint0_linear_118_282)"/>
<path d="M36.2776 28.0807C36.1886 30.0309 35.8625 31.0904 35.5917 31.7942C35.2279 32.7273 34.794 33.3944 34.0903 34.0942C33.3944 34.794 32.7273 35.2269 31.7942 35.5867C31.0904 35.8615 30.0269 36.1886 28.0768 36.2816C25.9685 36.3745 25.3438 36.3943 19.9975 36.3943C14.6562 36.3943 14.0265 36.3745 11.9182 36.2816C9.96814 36.1886 8.90956 35.8615 8.20576 35.5867C7.26778 35.2269 6.60557 34.794 5.90578 34.0942C5.20101 33.3944 4.76713 32.7273 4.40833 31.7942C4.13746 31.0904 3.80639 30.0309 3.72233 28.0807C3.61958 25.9725 3.60075 25.3379 3.60075 20.0025C3.60075 14.6562 3.61958 14.0265 3.72233 11.9182C3.80639 9.96814 4.13746 8.90956 4.40833 8.19983C4.76713 7.26778 5.20101 6.60453 5.90578 5.90474C6.60557 5.20598 7.26778 4.77202 8.20576 4.40834C8.90956 4.13257 9.96814 3.81033 11.9182 3.71744C14.0265 3.62448 14.6562 3.60075 19.9975 3.60075C25.3438 3.60075 25.9685 3.62448 28.0768 3.71744C30.0269 3.81033 31.0904 4.13257 31.7942 4.40834C32.7273 4.77202 33.3944 5.20598 34.0903 5.90474C34.794 6.60453 35.2279 7.26778 35.5917 8.19983C35.8625 8.90956 36.1886 9.96814 36.2776 11.9182C36.3755 14.0265 36.3992 14.6562 36.3992 20.0025C36.3992 25.3379 36.3755 25.9725 36.2776 28.0807ZM39.8784 11.7542C39.7806 9.62314 39.4445 8.16721 38.9453 6.89913C38.4373 5.58353 37.7563 4.46861 36.6414 3.35368C35.5314 2.24372 34.4165 1.56268 33.1009 1.04873C31.8278 0.554501 30.3768 0.214462 28.2448 0.121578C26.1128 0.0187569 25.4318 0 19.9975 0C14.5682 0 13.8822 0.0187569 11.7502 0.121578C9.62314 0.214462 8.17314 0.554501 6.89416 1.04873C5.58353 1.56268 4.4686 2.24372 3.35864 3.35368C2.24372 4.46861 1.56268 5.58353 1.04969 6.89913C0.555462 8.16721 0.219427 9.62314 0.116608 11.7542C0.0237218 13.8862 0 14.5682 0 20.0025C0 25.4318 0.0237218 26.1128 0.116608 28.2448C0.219427 30.3719 0.555462 31.8268 1.04969 33.1009C1.56268 34.4115 2.24372 35.5314 3.35864 36.6414C4.4686 37.7513 5.58353 38.4373 6.89416 38.9503C8.17314 39.4445 9.62314 39.7806 11.7502 39.8784C13.8822 39.9763 14.5682 40 19.9975 40C25.4318 40 26.1128 39.9763 28.2448 39.8784C30.3768 39.7806 31.8278 39.4445 33.1009 38.9503C34.4165 38.4373 35.5314 37.7513 36.6414 36.6414C37.7563 35.5314 38.4373 34.4115 38.9453 33.1009C39.4445 31.8268 39.7806 30.3719 39.8784 28.2448C39.9763 26.1128 40 25.4318 40 20.0025C40 14.5682 39.9763 13.8862 39.8784 11.7542Z" fill="url(#paint1_linear_118_282)"/>
<path d="M19.9975 26.6633C16.3177 26.6633 13.3317 23.6822 13.3317 20.0024C13.3317 16.3166 16.3177 13.3316 19.9975 13.3316C23.6784 13.3316 26.6684 16.3166 26.6684 20.0024C26.6684 23.6822 23.6784 26.6633 19.9975 26.6633ZM19.9975 9.72593C14.3251 9.72593 9.73096 14.3299 9.73096 20.0024C9.73096 25.67 14.3251 30.269 19.9975 30.269C25.67 30.269 30.2691 25.67 30.2691 20.0024C30.2691 14.3299 25.67 9.72593 19.9975 9.72593Z" fill="url(#paint2_linear_118_282)"/>
<defs>
<linearGradient id="paint0_linear_118_282" x1="0.360797" y1="39.5864" x2="36.6684" y2="3.2789" gradientUnits="userSpaceOnUse">
<stop stop-color="#FFD521"/>
<stop offset="0.05" stop-color="#FFD521"/>
<stop offset="0.501119" stop-color="#F50000"/>
<stop offset="0.95" stop-color="#B900B4"/>
<stop offset="0.950079" stop-color="#B900B4"/>
<stop offset="1" stop-color="#B900B4"/>
</linearGradient>
<linearGradient id="paint1_linear_118_282" x1="0.360795" y1="39.6362" x2="36.6982" y2="3.29882" gradientUnits="userSpaceOnUse">
<stop stop-color="#FFD521"/>
<stop offset="0.05" stop-color="#FFD521"/>
<stop offset="0.501119" stop-color="#F50000"/>
<stop offset="0.95" stop-color="#B900B4"/>
<stop offset="0.950079" stop-color="#B900B4"/>
<stop offset="1" stop-color="#B900B4"/>
</linearGradient>
<linearGradient id="paint2_linear_118_282" x1="0.370247" y1="39.6372" x2="36.6989" y2="3.30848" gradientUnits="userSpaceOnUse">
<stop stop-color="#FFD521"/>
<stop offset="0.05" stop-color="#FFD521"/>
<stop offset="0.501119" stop-color="#F50000"/>
<stop offset="0.95" stop-color="#B900B4"/>
<stop offset="0.950079" stop-color="#B900B4"/>
<stop offset="1" stop-color="#B900B4"/>
</linearGradient>
</defs>
</svg>
